<svg fill="#ffffff" height="200px" width="200px" version="1.1" id="Capa_1" xmlns="http://www.w3.org/2000/svg" xmlns:xlink="http://www.w3.org/1999/xlink" viewBox="0 0 214 214" xml:space="preserve" stroke="#ffffff"><g id="SVGRepo_bgCarrier" stroke-width="0"></g><g id="SVGRepo_tracerCarrier" stroke-linecap="round" stroke-linejoin="round"></g><g id="SVGRepo_iconCarrier"> <path d="M162.527,163.583c-11.286,0-20.614-8.541-21.859-19.5H58.692c-1.245,10.959-10.573,19.5-21.859,19.5 s-20.614-8.541-21.859-19.5H2.5c-1.381,0-2.5-1.119-2.5-2.5V99.417c0-5.146,4.187-9.334,9.333-9.334h0.333v-6.611 c0-2.888,1.562-5.563,4.075-6.984l43.946-24.852c1.408-0.797,3.01-1.219,4.631-1.219h3.274c5.188,0,9.408,4.22,9.408,9.407v30.259 h4.667V58.917c0-1.381,1.119-2.5,2.5-2.5h50.776c4.602,0,8.67,2.933,10.125,7.298l6.705,21.989l43.137,7.145 c6.813,1.129,11.758,6.961,11.758,13.866v12.368h1.667v-18.25c0-1.381,1.119-2.5,2.5-2.5s2.5,1.119,2.5,2.5v18.25h0.167 c1.381,0,2.5,1.119,2.5,2.5v13.334c0,5.054-4.112,9.166-9.167,9.166h-20.447C183.142,155.042,173.813,163.583,162.527,163.583z M162.527,124.583c-9.374,0-17,7.626-17,17s7.626,17,17,17s17-7.626,17-17S171.901,124.583,162.527,124.583z M36.833,124.583 c-9.374,0-17,7.626-17,17s7.626,17,17,17s17-7.626,17-17S46.207,124.583,36.833,124.583z M192.902,139.083h11.931 c2.298,0,4.167-1.869,4.167-4.166v-10.834h-6.833c-1.381,0-2.5-1.119-2.5-2.5v-14.868c0-4.449-3.186-8.206-7.575-8.933 l-44.667-7.398c-0.937-0.155-1.706-0.829-1.982-1.737l-7.138-23.413c-0.753-2.258-2.916-3.816-5.361-3.816H84.667v31.166 c0,1.381-1.119,2.5-2.5,2.5H9.333C6.944,95.083,5,97.027,5,99.417v39.666h2.167V123.5c0-9.144,7.439-16.583,16.583-16.583h27.583 c9.144,0,16.583,7.439,16.583,16.583v15.583h64.236v-3.5h-22.069c-1.381,0-2.5-1.119-2.5-2.5v-65.5c0-1.381,1.119-2.5,2.5-2.5 h20.689c2.641,0,4.958,1.782,5.634,4.335l5.968,22.522c0,0.002,0.001,0.005,0.002,0.008l3.976,15.14 c0.779-0.112,1.575-0.171,2.384-0.171h27.583c9.144,0,16.583,7.439,16.583,16.583V139.083z M184.386,139.083h3.516V123.5 c0-6.387-5.196-11.583-11.583-11.583h-27.583c-6.387,0-11.583,5.196-11.583,11.583v15.583h3.516 c1.245-10.959,10.573-19.5,21.859-19.5S183.142,128.124,184.386,139.083z M58.692,139.083h4.225V123.5 c0-6.387-5.196-11.583-11.583-11.583H23.75c-6.387,0-11.583,5.196-11.583,11.583v15.583h2.808c1.245-10.959,10.573-19.5,21.859-19.5 S57.447,128.124,58.692,139.083z M112.583,130.583h19.569V123.5c0-6.577,3.85-12.272,9.413-14.952l-3.536-13.465h-25.447V130.583z M112.583,90.083h24.126l-5.137-19.384c-0.096-0.363-0.425-0.616-0.801-0.616h-18.189V90.083z M14.667,90.083H70V59.824 c0-2.43-1.977-4.407-4.408-4.407h-3.274c-0.76,0-1.51,0.197-2.169,0.57L16.202,80.84c-0.947,0.536-1.535,1.544-1.535,2.632V90.083z M162.527,153.75c-6.709,0-12.167-5.458-12.167-12.167c0-6.708,5.458-12.166,12.167-12.166c6.708,0,12.167,5.458,12.167,12.166 C174.694,148.292,169.236,153.75,162.527,153.75z M162.527,134.417c-3.952,0-7.167,3.215-7.167,7.166 c0,3.952,3.215,7.167,7.167,7.167c3.952,0,7.167-3.215,7.167-7.167C169.694,137.632,166.479,134.417,162.527,134.417z M36.833,153.75c-6.708,0-12.167-5.458-12.167-12.167c0-6.708,5.458-12.166,12.167-12.166c6.709,0,12.167,5.458,12.167,12.166 C49,148.292,43.542,153.75,36.833,153.75z M36.833,134.417c-3.952,0-7.167,3.215-7.167,7.166c0,3.952,3.215,7.167,7.167,7.167 S44,145.535,44,141.583C44,137.632,40.785,134.417,36.833,134.417z M101.833,95.083H91.5c-1.381,0-2.5-1.119-2.5-2.5v-25 c0-1.381,1.119-2.5,2.5-2.5h10.333c1.381,0,2.5,1.119,2.5,2.5v25C104.333,93.964,103.214,95.083,101.833,95.083z M94,90.083h5.333 v-20H94V90.083z"></path> </g></svg>